<svg xmlns="http://www.w3.org/2000/svg" version="1.1" xmlns:xlink="http://www.w3.org/1999/xlink" width="512" height="512" x="0" y="0" viewBox="0 0 512 512" style="enable-background:new 0 0 512 512" xml:space="preserve" class=""><g><path fill-rule="evenodd" d="m406.186 224.168 12.59-21.808c5.94-10.289 19.177-13.836 29.466-7.895l7.472 4.314c10.289 5.94 13.836 19.177 7.895 29.466l-12.59 21.807zM55.187 16c-5.33 0-9.677 4.347-9.677 9.677v460.646c0 5.33 4.347 9.677 9.677 9.677h350.991c5.33 0 9.677-4.347 9.677-9.677V342.957l-50.112 86.796-45.547 26.296c-7.787 4.496-16.916 2.343-22.314-3.526H95.706a8 8 0 0 1 0-16h197.493V398.66H95.706a8 8 0 0 1 0-16h200.501l21.861-37.864H95.706a8 8 0 0 1 0-16h231.599l21.861-37.864H95.706a8 8 0 0 1 0-16h262.698l46.518-80.571a37.276 37.276 0 0 1 10.934-11.934V92.002H360.69c-11.496 0-20.838-9.342-20.838-20.838V16zm258.001 369.245 44.834 25.885 84.999-147.222-44.834-25.885zm32.862 37.405-33.853 19.545c-1.33.768-3-.197-3-1.732v-39.09zM119.996 204.258a3.73 3.73 0 0 1-3.685-4.404c5.27-29.391 30.966-51.697 61.873-51.697s56.602 22.305 61.873 51.696a3.73 3.73 0 0 1-3.685 4.404zm58.189-125.974c17.554 0 31.785 14.23 31.785 31.785 0 17.554-14.23 31.785-31.785 31.785-17.554 0-31.785-14.231-31.785-31.785 0-17.555 14.231-31.785 31.785-31.785zm177.667-61.445a9.703 9.703 0 0 1 2.834 1.995l54.334 54.334a9.72 9.72 0 0 1 1.996 2.834H360.69a4.847 4.847 0 0 1-4.838-4.838zm-97.188 218.065H97.705c-5.5 0-10-4.5-10-10V63.946c0-5.5 4.5-10 10-10h160.959c5.5 0 10 4.5 10 10v160.958c0 5.5-4.5 10-10 10zm45.147-105.565a8 8 0 0 1 0-16h61.848a8 8 0 0 1 0 16zm0 53.864a8 8 0 0 1 0-16h61.848a8 8 0 0 1 0 16zm0 53.865a8 8 0 0 1 0-16h61.848a8 8 0 0 1 0 16z" clip-rule="evenodd" fill="#ffffff" opacity="1" data-original="#000000" class=""></path></g></svg>